<?xml version="1.0" encoding="utf-8"?>
<svg width="800px" height="800px" viewBox="0 0 1024 1024" xmlns="http://www.w3.org/2000/svg">
  <path fill="#ffffff" d="M 512 896 a 384 384 0 1 0 0 -768 a 384 384 0 0 0 0 768 z m 0 64 a 448 448 0 1 1 0 -896 a 448 448 0 0 1 0 896 z M 512 96 a 32 32 0 0 1 32 32 v 192 a 32 32 0 0 1 -64 0 V 128 a 32 32 0 0 1 32 -32 z m 0 576 a 32 32 0 0 1 32 32 v 192 a 32 32 0 1 1 -64 0 V 704 a 32 32 0 0 1 32 -32 z M 96 512 a 32 32 0 0 1 32 -32 h 192 a 32 32 0 0 1 0 64 H 128 a 32 32 0 0 1 -32 -32 z m 576 0 a 32 32 0 0 1 32 -32 h 192 a 32 32 0 1 1 0 64 H 704 a 32 32 0 0 1 -32 -32 z"/>
</svg>
