<?xml version="1.0" encoding="utf-8"?>
<svg fill="#ffffff" width="800px" height="800px" viewBox="0 0 24 24" xmlns="http://www.w3.org/2000/svg">
  <path d="M 5.6 15.6 c 0.2 0.1 0.2 0.5 0 0.7 c -0.2 0.2 -0.5 0.2 -0.7 0 c -1.3 -1.1 -2.2 -2.5 -2.9 -4.1 c 0 -0.1 0 -0.3 0 -0.4 c 2.1 -5.3 7.9 -8 13.3 -6.3 c 0.3 0.1 0.4 0.4 0.3 0.7 c 0 0.2 -0.4 0.4 -0.6 0.3 c -4.8 -1.6 -10 0.8 -12 5.5 c 0.6 1.4 1.5 2.6 2.6 3.6 M 12 8 c 0 0 0.5 0 0.5 0.5 c 0 0.3 -0.5 0.4 -0.5 0.4 c -1.7 0 -3 1.3 -3 3 c 0.1 0.2 -0.1 0.5 -0.4 0.5 c -0.3 0.1 -0.5 -0.1 -0.6 -0.4 c 0 -2.2 1.8 -4 4 -4 M 11.5 16 c -0.5 0 -0.5 -0.3 -0.5 -0.6 c 0.1 -0.3 0.3 -0.5 1 -0.4 c 1.7 0 3 -1.3 3 -3 c -0.1 -0.2 0.1 -0.5 0.4 -0.5 c 0.3 -0.1 0.5 0.1 0.6 0.4 c 0 2.2 -1.8 4 -3.6 4.1 M 3.9 20.9 c -0.2 0.1 -0.6 0.1 -0.8 0 c -0.1 -0.2 -0.1 -0.6 0 -0.8 l 17 -17 c 0.2 -0.1 0.6 -0.1 0.8 0 c 0.1 0.2 0.1 0.6 0 0.8 l -17 17 M 18.4 8.4 c -0.2 -0.1 -0.2 -0.5 0 -0.7 c 0.2 -0.2 0.5 -0.2 0.7 0 c 1.3 1.1 2.2 2.5 2.9 4.1 c -2.1 5.3 -7.9 8 -13.3 6.3 c -0.3 -0.1 -0.4 -0.4 -0.3 -0.7 c 0 -0.2 0.4 -0.4 0.6 -0.3 c 4.8 1.6 10 -0.8 12 -5.5 c -0.6 -1.4 -1.6 -2.1 -2.6 -3.2"/>
</svg>
