<?xml version="1.0" encoding="utf-8"?>
<svg fill="#ffffff" width="800px" height="800px" viewBox="0 0 32 32" xmlns="http://www.w3.org/2000/svg">
    <path d="M 31.7 16 l -15 -15.7 c -0.2 -0.2 -0.4 -0.3 -0.7 -0.3 s -0.5 0.1 -0.7 0.3 l -15.1 15.7 c -0.4 0.4 -0.4 1 0 1.4 c 0.4 0.4 1 0.4 1.4 0 l 1.3 -1.4 v 15 c 0 0.6 0.4 1 1 1 h 7 c 0.6 0 1 -0.4 1 -1 l 0 -10 h 8 v 10 c 0 0.6 0.4 1 1 1 h 7 c 0.6 0 1 -0.4 1 -1 v -15 l 1.3 1.4 c 0.2 0.2 0.5 0.3 0.7 0.3 c 0.2 0 0.5 -0.1 0.7 -0.3 c 0.4 -0.4 0.4 -1 0.1 -1.4 M 27 14.2 v 16 h -5 v -10 c 0 -0.6 -0.4 -1 -1 -1 h -10 c -0.6 0 -1 0.4 -1 1 l 0 10 h -5 v -15.8 l 11.1 -11.5 l 11 11.5"></path>
</svg>
