<?xml version="1.0" encoding="iso-8859-1"?>
<svg fill="#ffffff" id="localeSvg" xmlns="http://www.w3.org/2000/svg" viewBox="0 0 32 32">
  <path id="language--translation_1_" d="M 27 10 l 0.8 -0 l -2.4 -6.1 h -0.7 L 22.2 10 h 0.8 l 0.7 -1.6 h 2.7 L 27 10 M 23.9 7.6 l 1.1 -2.7 l 1.1 2.7 H 23.9 M 13 31.4 H 1 c -0.2 0 -0.4 -0.2 -0.4 -0.4 V 19 c 0 -0.2 0.2 -0.4 0.4 -0.4 h 12 c 0.2 0 0.4 0.2 0.4 0.4 v 12 C 13.4 31.2 13.2 31.4 13 31.4 M 1.4 30.6 h 11.3 V 19.4 H 1.4 V 30.6 M 25 13.4 c -3.5 0 -6.4 -2.9 -6.4 -6.4 S 21.5 0.6 25 0.6 S 31.4 3.5 31.4 7 S 28.5 13.4 25 13.4 M 25 1.4 c -3.1 0 -5.6 2.5 -5.6 5.6 s 2.5 5.6 5.6 5.6 s 5.6 -2.5 5.6 -5.6 S 28.1 1.4 25 1.4 M 13.9 3.9 l -0.5 0.5 l 2.2 2.2 H 9 c -1.3 0 -2.4 1.1 -2.4 2.4 V 17 h 0.7 V 9 C 7.4 8.1 8.1 7.4 9 7.4 h 6.6 l -2.2 2.2 l 0.5 0.5 l 3.1 -3.1 L 13.9 3.9 M 24.6 15 v 8 c 0 0.9 -0.7 1.6 -1.6 1.6 h -6.6 l 2.2 -2.2 l -0.5 -0.5 l -3.1 3.1 l 3.1 3.1 l 0.5 -0.5 l -2.2 -2.2 H 23 c 1.3 0 2.4 -1.1 2.4 -2.4 v -8 C 25.4 15 24.6 15 24.6 15 M 10 23.4 v -0.7 H 7.4 V 21.5 H 6.6 v 1.1 H 4 v 0.7 h 4 c -0 0.6 -0.2 2 -1 3.1 c -0.7 -0.6 -1.1 -1.4 -1.2 -2 l -0.7 0.2 c 0.2 0.7 0.6 1.6 1.4 2.3 c -0.6 0.5 -1.4 0.7 -2.4 0.7 v 0.7 c 1.2 0 2.2 -0.3 3 -1 c 0.8 0.6 1.8 1 3 1 v -0.7 c -1 0 -1.8 -0.3 -2.5 -0.8 c 1 -1.2 1.2 -2.8 1.2 -3.5 L 10 23.4 L 10 23.4"/>
  <rect id="_Transparent_Rectangle" style="fill:none;" width="32" height="32"/>
</svg>
