<?xml version="1.0" encoding="utf-8"?>
<svg fill="#000000" width="800px" height="800px" viewBox="0 0 32 32" xmlns="http://www.w3.org/2000/svg">
    <path d="M 16.6 20.7 c -0.4 0.4 -0.4 1 0 1.4 c 0.2 0.2 0.5 0.3 0.7 0.3 s 0.5 -0.1 0.7 -0.3 l 5.9 -6.1 l -5.9 -6.1 c -0.4 -0.4 -1 -0.4 -1.4 0 s -0.4 1 0 1.4 l 3.6 3.6 h -19.3 c -0.6 0 -1 0.4 -1 1 s 0.4 1 1 1 h 19.3 M 30 0 h -18 c -1.1 0 -2 0.9 -2 2 v 9 h 2 v -7.8 c 0 -0.7 0.5 -1.2 1.2 -1.2 h 15.5 c 0.7 0 1.2 0.5 1.2 1.2 l 0 25.6 c 0 0.7 -0.5 1.2 -1.2 1.2 h -15.6 c -0.7 0 -1.2 -0.5 -1.2 -1.2 v -7.8 l -2 0 v 9 c 0 1.1 0.9 2 2 2 h 18 c 1.1 0 2 -0.9 2 -2 v -28 c -0 -1.1 -0.9 -2 -2 -2"></path>
</svg>
