<?xml version="1.0" encoding="utf-8"?>
<svg fill="#000000" width="800px" height="800px" viewBox="0 0 32 32" xmlns="http://www.w3.org/2000/svg">
    <path d="M 3.7 17 h 17.3 c 0.6 0 1 -0.4 1 -1 s -0.4 -1 -1 -1 h -17.3 l 3.6 -3.6 c 0.4 -0.4 0.4 -1 0 -1.4 s -1 -0.4 -1.4 0 l -5.9 6.1 l 5.9 6.1 c 0.2 0.2 0.5 0.3 0.7 0.3 s 0.5 -0.1 0.7 -0.3 c 0.4 -0.4 0.4 -1 0 -1.4 M 30 0 h -17 c -1.1 0 -2 0.9 -2 2 v 9 h 2 v -7.8 c 0 -0.7 0.5 -1.2 1.2 -1.2 h 14.5 c 0.7 0 1.2 0.5 1.2 1.2 l 0 25.6 c 0 0.7 -0.5 1.2 -1.2 1.2 h -14.6 c -0.7 0 -1.2 -0.5 -1.2 -1.2 v -7.8 l -2 0 v 9 c 0 1.1 0.9 2 2 2 h 17 c 1.1 0 2 -0.9 2 -2 v -28 c 0 -1.1 -0.9 -2 -2 -2"></path>
</svg>
