<?xml version="1.0" encoding="utf-8"?>
<svg width="25px" height="25px" viewBox="0 0 24 24" fill="none" xmlns="http://www.w3.org/2000/svg">
<path d="M 18 12 c 0 3.3 -2.7 6 -6 6 c -3.3 0 -6 -2.7 -6 -6 c 0 -3.3 2.7 -6 6 -6 c 3.3 0 6 2.7 6 6 Z" fill="#fff300"/>
<path fill-rule="evenodd" clip-rule="evenodd" d="M 12 1.3 c 0.4 0 0.8 0.3 0.8 0.8 v 1 c 0 0.4 -0.3 0.8 -0.8 0.8 c -0.4 0 -0.8 -0.3 -0.8 -0.8 v -1 c 0 -0.4 0.3 -0.8 0.8 -0.8 Z M 1.3 12 c 0 -0.4 0.3 -0.8 0.8 -0.8 h 1 c 0.4 0 0.8 0.3 0.8 0.8 c 0 0.4 -0.3 0.8 -0.8 0.8 h -1 c -0.4 0 -0.8 -0.3 -0.8 -0.8 Z M 20.3 12 c 0 -0.4 0.3 -0.8 0.8 -0.8 h 1 c 0.4 0 0.8 0.3 0.8 0.8 c 0 0.4 -0.3 0.8 -0.8 0.8 h -1 c -0.4 0 -0.8 -0.3 -0.8 -0.8 Z M 12 20.3 c 0.4 0 0.8 0.3 0.8 0.8 v 1 c 0 0.4 -0.3 0.8 -0.8 0.8 c -0.4 0 -0.8 -0.3 -0.8 -0.8 v -1 c 0 -0.4 0.3 -0.8 0.8 -0.8 Z" fill="#fff300"/>
<g opacity="0.5">
<path d="M 4.4 4.4 c 0.3 -0.3 0.8 -0.3 1.1 0 l 0.4 0.4 c 0.3 0.3 0.3 0.8 0 1.1 c -0.3 0.3 -0.8 0.3 -1.1 0 l -0.4 -0.4 c -0.3 -0.3 -0.3 -0.8 0 -1.1 Z" fill="#fff300"/>
<path d="M 19.6 4.4 c 0.3 0.3 0.3 0.8 0 1.1 l -0.4 0.4 c -0.3 0.3 -0.8 0.3 -1.1 0 c -0.3 -0.3 -0.3 -0.8 0 -1.1 l 0.4 -0.4 c 0.3 -0.3 0.8 -0.3 1.1 0 Z" fill="#fff300"/>
<path d="M 18.1 18.1 c 0.3 -0.3 0.8 -0.3 1.1 0 l 0.4 0.4 c 0.3 0.3 0.3 0.8 0 1.1 c -0.3 0.3 -0.8 0.3 -1.1 0 l -0.4 -0.4 c -0.3 -0.3 -0.3 -0.8 0 -1.1 Z" fill="#fff300"/>
<path d="M 5.9 18.1 c 0.3 0.3 0.3 0.8 0 1.1 l -0.4 0.4 c -0.3 0.3 -0.8 0.3 -1.1 0 c -0.3 -0.3 -0.3 -0.8 0 -1.1 l 0.4 -0.4 c 0.3 -0.3 0.8 -0.3 1.1 0 Z" fill="#fff300"/>
</g>
</svg>
